<svg width="15" height="17" viewBox="0 0 15 17" fill="none" xmlns="http://www.w3.org/2000/svg">
<g clip-path="url(#clip0_55025_5578)">
<path d="M11.7442 8.53257C11.737 7.2096 12.3333 6.21107 13.5403 5.47569C12.865 4.506 11.8448 3.97249 10.4977 3.86795C9.22246 3.76702 7.82868 4.61415 7.31858 4.61415C6.77975 4.61415 5.54402 3.904 4.57411 3.904C2.56965 3.93644 0.439453 5.50814 0.439453 8.7056C0.439453 9.65006 0.61188 10.6258 0.956735 11.6327C1.41654 12.9557 3.07615 16.2 4.80761 16.1459C5.71285 16.1243 6.35227 15.5006 7.53052 15.5006C8.67285 15.5006 9.26557 16.1459 10.275 16.1459C12.0208 16.1207 13.5224 13.1719 13.9606 11.8454C11.6185 10.7387 11.7442 8.60106 11.7442 8.53257ZM9.71101 2.61348C10.6917 1.44553 10.6019 0.382109 10.5731 4.31138e-08C9.70742 0.0504673 8.70518 0.591188 8.13402 1.25808C7.50538 1.97183 7.13538 2.855 7.21441 3.84993C8.15198 3.92202 9.00693 3.43898 9.71101 2.61348Z" fill="black"/>
</g>
<defs>
<clipPath id="clip0_55025_5578">
<rect width="14.4" height="16.2" fill="white"/>
</clipPath>
</defs>
</svg>
