<svg width="18" height="18" viewBox="0 0 18 18" fill="none" xmlns="http://www.w3.org/2000/svg">
<g clip-path="url(#clip0_55933_3125)">
<path d="M17.5793 9.16838C17.5793 8.43093 17.5195 7.89279 17.39 7.33472H8.96899V10.6632H13.9119C13.8123 11.4904 13.2742 12.7361 12.0783 13.5732L12.0615 13.6846L14.724 15.7472L14.9085 15.7657C16.6026 14.201 17.5793 11.899 17.5793 9.16838Z" fill="#4285F4"/>
<path d="M8.96919 17.9381C11.3908 17.9381 13.4238 17.1408 14.9087 15.7656L12.0785 13.5731C11.3211 14.1013 10.3046 14.47 8.96919 14.47C6.59738 14.47 4.58434 12.9055 3.86674 10.7429L3.76156 10.7519L0.992993 12.8945L0.956787 12.9951C2.43169 15.925 5.46125 17.9381 8.96919 17.9381Z" fill="#34A853"/>
<path d="M3.86663 10.743C3.67729 10.1849 3.56771 9.58692 3.56771 8.96908C3.56771 8.35117 3.67729 7.75325 3.85667 7.19519L3.85166 7.07633L1.0484 4.89929L0.956679 4.94292C0.348802 6.15874 0 7.52406 0 8.96908C0 10.4141 0.348802 11.7793 0.956679 12.9952L3.86663 10.743Z" fill="#FBBC05"/>
<path d="M8.96919 3.46802C10.6534 3.46802 11.7894 4.19551 12.4372 4.80346L14.9685 2.33196C13.4139 0.886946 11.3908 0 8.96919 0C5.46125 0 2.43169 2.01305 0.956787 4.94292L3.85678 7.19519C4.58434 5.03265 6.59738 3.46802 8.96919 3.46802Z" fill="#EB4335"/>
</g>
<defs>
<clipPath id="clip0_55933_3125">
<rect width="17.5878" height="18" fill="white"/>
</clipPath>
</defs>
</svg>
